ply
format ascii 1.0
comment Created by Blender 3.4.1 - www.blender.org
element vertex 512
property float x
property float y
property float z
property float nx
property float ny
property float nz
property float s
property float t
element face 512
property list uchar uint vertex_indices
end_header
0.000000 0.195090 0.980785 -0.000000 0.200969 0.979598 0.567268 0.868303
0.000000 0.000000 1.000000 0.000000 -0.000000 1.000000 0.495266 0.852857
0.038060 0.191342 0.980785 0.039207 0.197108 0.979598 0.566457 0.856148
0.000000 0.000000 -1.000000 0.000000 -0.000000 -1.000000 0.995266 0.147144
0.000000 0.195090 -0.980785 -0.000000 0.200969 -0.979598 0.942759 0.182515
0.038060 0.191342 -0.980785 0.039207 0.197108 -0.979598 0.935719 0.172890
0.000000 0.980785 -0.195090 -0.000002 0.981015 -0.193930 0.822818 0.504873
0.000000 1.000000 0.000000 -0.000002 1.000000 0.000000 0.810089 0.562031
0.195090 0.980785 0.000000 0.195090 0.980785 0.000000 0.781429 0.535581
0.191342 0.961940 -0.195090 0.191386 0.962165 -0.193930 0.794966 0.479228
0.000000 0.382683 0.923880 -0.000001 0.387887 0.921707 0.641452 0.857179
0.074658 0.375330 0.923880 0.075673 0.380434 0.921707 0.630338 0.835624
0.000000 0.923879 -0.382683 -0.000001 0.924766 -0.380537 0.835478 0.447684
0.180240 0.906127 -0.382683 0.180412 0.906997 -0.380537 0.808822 0.423029
0.000000 0.555570 0.831470 -0.000001 0.559775 0.828645 0.697492 0.824480
0.108386 0.544895 0.831470 0.109207 0.549019 0.828645 0.676891 0.798466
0.000000 0.831470 -0.555570 -0.000001 0.833340 -0.552761 0.848920 0.390841
0.162212 0.815493 -0.555570 0.162576 0.817327 -0.552761 0.823944 0.367441
0.000000 0.707107 0.707107 -0.000001 0.710141 0.704059 0.735147 0.779654
0.137950 0.693520 0.707107 0.138542 0.696496 0.704059 0.709376 0.752105
0.000000 0.707107 -0.707107 -0.000001 0.710141 -0.704059 0.864196 0.334814
0.137950 0.693520 -0.707107 0.138541 0.696496 -0.704059 0.841590 0.313094
0.000000 0.831470 0.555570 -0.000001 0.833340 0.552761 0.761226 0.728711
0.162212 0.815493 0.555570 0.162576 0.817327 0.552761 0.733105 0.700875
0.000000 0.555570 -0.831470 -0.000001 0.559775 -0.828645 0.882867 0.280332
0.108386 0.544895 -0.831470 0.109206 0.549019 -0.828645 0.863688 0.261010
0.000000 0.923879 0.382683 -0.000001 0.924766 0.380537 0.780693 0.674598
0.180240 0.906127 0.382683 0.180412 0.906997 0.380537 0.751695 0.647001
0.000000 0.382683 -0.923880 -0.000001 0.387887 -0.921707 0.907539 0.228698
0.074658 0.375330 -0.923880 0.075672 0.380434 -0.921707 0.893414 0.213060
0.000000 0.980785 0.195090 -0.000002 0.981015 0.193930 0.796418 0.618773
0.191342 0.961940 0.195090 0.191386 0.962165 0.193930 0.767340 0.591668
0.353553 0.853553 0.382683 0.353892 0.854372 0.380537 0.723996 0.619193
0.375330 0.906127 0.195090 0.375418 0.906340 0.193930 0.739178 0.563865
0.146447 0.353553 -0.923880 0.148438 0.358361 -0.921707 0.879896 0.195479
0.074658 0.180240 -0.980785 0.076907 0.185671 -0.979598 0.929896 0.162212
0.382683 0.923879 0.000000 0.382683 0.923880 0.000000 0.753309 0.508011
0.074658 0.180240 0.980785 0.076907 0.185671 0.979598 0.563300 0.844314
0.375330 0.906127 -0.195090 0.375418 0.906340 -0.193930 0.767315 0.452094
0.146447 0.353553 0.923880 0.148438 0.358361 0.921707 0.618082 0.815427
0.353553 0.853553 -0.382683 0.353892 0.854372 -0.380537 0.782092 0.396562
0.212608 0.513280 0.831470 0.214217 0.517165 0.828645 0.657173 0.773912
0.318190 0.768178 -0.555570 0.318905 0.769905 -0.552761 0.798714 0.341964
0.270598 0.653281 0.707107 0.271760 0.656085 0.704059 0.685241 0.725518
0.270598 0.653281 -0.707107 0.271760 0.656085 -0.704059 0.818709 0.289116
0.318190 0.768178 0.555570 0.318905 0.769905 0.552761 0.706593 0.673391
0.212608 0.513280 -0.831470 0.214217 0.517165 -0.828645 0.844487 0.239416
0.513280 0.768178 -0.382683 0.513772 0.768914 -0.380537 0.754885 0.369020
0.461940 0.691342 -0.555570 0.462979 0.692897 -0.552761 0.772822 0.315021
0.308658 0.461940 0.831470 0.310994 0.465436 0.828645 0.637870 0.751148
0.392847 0.587938 0.707107 0.394534 0.590461 0.704059 0.662044 0.700446
0.392847 0.587938 -0.707107 0.394534 0.590461 -0.704059 0.795182 0.263338
0.461940 0.691342 0.555570 0.462979 0.692897 0.552761 0.681041 0.646993
0.308658 0.461940 -0.831470 0.310994 0.465436 -0.828645 0.825051 0.215853
0.513280 0.768178 0.382683 0.513772 0.768914 0.380537 0.697047 0.592015
0.212608 0.318190 -0.923880 0.215499 0.322516 -0.921707 0.867123 0.176171
0.544895 0.815493 0.195090 0.545023 0.815684 0.193930 0.711466 0.536245
0.108386 0.162212 -0.980785 0.111652 0.167099 -0.979598 0.925640 0.150719
0.555570 0.831469 0.000000 0.555570 0.831470 0.000000 0.725311 0.480192
0.108386 0.162212 0.980785 0.111652 0.167099 0.979598 0.558329 0.833136
0.544895 0.815493 -0.195090 0.545023 0.815684 -0.193930 0.739467 0.424292
0.212608 0.318190 0.923880 0.215499 0.322516 0.921707 0.604972 0.796826
0.270598 0.270598 -0.923880 0.274278 0.274277 -0.921707 0.855308 0.155368
0.137950 0.137950 -0.980785 0.142106 0.142106 -0.979598 0.923407 0.138704
0.693520 0.693520 0.195090 0.693683 0.693682 0.193930 0.683774 0.509644
0.707107 0.707107 0.000000 0.707107 0.707107 0.000000 0.697011 0.452991
0.137950 0.137950 0.980785 0.142106 0.142106 0.979598 0.551952 0.822879
0.693520 0.693520 -0.195090 0.693683 0.693682 -0.193930 0.710973 0.396675
0.270598 0.270598 0.923880 0.274278 0.274277 0.921707 0.591182 0.780045
0.653281 0.653281 -0.382683 0.653908 0.653908 -0.380537 0.726706 0.341193
0.392847 0.392847 0.831470 0.395821 0.395821 0.828645 0.618699 0.730484
0.587938 0.587938 -0.555570 0.589260 0.589260 -0.552761 0.745717 0.287291
0.500000 0.500000 0.707107 0.502146 0.502146 0.704059 0.639317 0.677374
0.500000 0.500000 -0.707107 0.502146 0.502146 -0.704059 0.770454 0.236269
0.587938 0.587938 0.555570 0.589260 0.589260 0.552761 0.655961 0.622327
0.392847 0.392847 -0.831470 0.395821 0.395821 -0.828645 0.805029 0.190637
0.653281 0.653281 0.382683 0.653908 0.653908 0.380537 0.670392 0.566231
0.691342 0.461940 -0.555570 0.692897 0.462979 -0.552761 0.716668 0.259562
0.587938 0.392847 -0.707107 0.590461 0.394533 -0.704059 0.743695 0.208508
0.587938 0.392847 0.707107 0.590461 0.394533 0.704059 0.616747 0.656744
0.691342 0.461940 0.555570 0.692897 0.462979 0.552761 0.631000 0.599984
0.461940 0.308658 -0.831470 0.465436 0.310994 -0.828645 0.783838 0.164110
0.768178 0.513280 0.382683 0.768915 0.513772 0.380537 0.643669 0.542558
0.318190 0.212608 -0.923880 0.322516 0.215498 -0.921707 0.844817 0.133311
0.815493 0.544895 0.195090 0.815685 0.545023 0.193930 0.655731 0.484878
0.162212 0.108386 -0.980785 0.167100 0.111652 -0.979598 0.923791 0.126533
0.831470 0.555570 0.000000 0.831470 0.555570 0.000000 0.668005 0.427287
0.162212 0.108386 0.980785 0.167100 0.111652 0.979598 0.544481 0.813763
0.815493 0.544895 -0.195090 0.815685 0.545023 -0.193930 0.681363 0.370149
0.318190 0.212608 0.923880 0.322516 0.215498 0.921707 0.576832 0.765294
0.768178 0.513280 -0.382683 0.768915 0.513772 -0.380537 0.696970 0.313966
0.461940 0.308658 0.831470 0.465436 0.310994 0.828645 0.599486 0.712215
0.180240 0.074658 0.980785 0.185671 0.076907 0.979598 0.536166 0.805968
0.180240 0.074658 -0.980785 0.185671 0.076907 -0.979598 0.927547 0.114679
0.923879 0.382683 0.000000 0.923880 0.382683 0.000000 0.637946 0.403995
0.906127 0.375330 -0.195090 0.906340 0.375418 -0.193930 0.650183 0.345708
0.353553 0.146447 0.923880 0.358361 0.148438 0.921707 0.562017 0.752771
0.853553 0.353553 -0.382683 0.854372 0.353892 -0.380537 0.665037 0.288362
0.513280 0.212607 0.831470 0.517165 0.214217 0.828645 0.580132 0.696622
0.768178 0.318190 -0.555570 0.769906 0.318905 -0.552761 0.684737 0.232805
0.653281 0.270598 0.707107 0.656085 0.271759 0.704059 0.594131 0.638967
0.653281 0.270598 -0.707107 0.656085 0.271759 -0.704059 0.713639 0.180821
0.768178 0.318190 0.555570 0.769906 0.318905 0.552761 0.605914 0.580518
0.513280 0.212607 -0.831470 0.517165 0.214217 -0.828645 0.760428 0.136665
0.853553 0.353553 0.382683 0.854372 0.353892 0.380537 0.616615 0.521685
0.353553 0.146447 -0.923880 0.358361 0.148438 -0.921707 0.836350 0.110271
0.906127 0.375330 0.195090 0.906340 0.375418 0.193930 0.627046 0.462757
0.693520 0.137950 0.707107 0.696496 0.138542 0.704059 0.571358 0.624416
0.815493 0.162212 0.555570 0.817327 0.162576 0.552761 0.580561 0.564436
0.693520 0.137950 -0.707107 0.696496 0.138542 -0.704059 0.678349 0.154298
0.544895 0.108386 -0.831470 0.549019 0.109207 -0.828645 0.732723 0.108828
0.906127 0.180240 0.382683 0.906996 0.180413 0.380537 0.589070 0.504263
0.375330 0.074658 -0.923880 0.380434 0.075673 -0.921707 0.831424 0.086572
0.961940 0.191342 0.195090 0.962165 0.191387 0.193930 0.597536 0.444077
0.191342 0.038060 -0.980785 0.197107 0.039207 -0.979598 0.935539 0.103753
0.980785 0.195090 0.000000 0.980785 0.195090 0.000000 0.606595 0.384057
0.191342 0.038060 0.980785 0.197107 0.039207 0.979598 0.527209 0.799637
0.961940 0.191342 -0.195090 0.962165 0.191386 -0.193930 0.617071 0.324434
0.375330 0.074658 0.923880 0.380434 0.075673 0.921707 0.546824 0.742647
0.906127 0.180240 -0.382683 0.906996 0.180413 -0.380537 0.630288 0.265587
0.544895 0.108386 0.831470 0.549019 0.109207 0.828645 0.560593 0.683958
0.815493 0.162212 -0.555570 0.817327 0.162576 -0.552761 0.648805 0.208274
1.000000 -0.000000 0.000000 1.000000 -0.000000 0.000000 0.573887 0.368405
0.980785 -0.000000 -0.195090 0.981015 -0.000000 -0.193930 0.581872 0.307471
0.195090 -0.000000 0.980785 0.200969 -0.000000 0.979598 0.517784 0.794887
0.382683 -0.000000 0.923880 0.387887 -0.000000 0.921707 0.531336 0.735069
0.923879 0.000000 -0.382683 0.924766 -0.000000 -0.380537 0.592315 0.247027
0.555570 -0.000000 0.831470 0.559775 -0.000000 0.828645 0.540867 0.674443
0.831469 -0.000000 -0.555570 0.833340 -0.000000 -0.552761 0.607782 0.187599
0.707107 0.000000 0.707107 0.710142 -0.000000 0.704059 0.548386 0.613417
0.707107 0.000000 -0.707107 0.710142 -0.000000 -0.704059 0.635028 0.130630
0.831469 -0.000000 0.555570 0.833340 -0.000000 0.552761 0.554891 0.552189
0.555570 -0.000000 -0.831470 0.559775 -0.000000 -0.828645 0.696016 0.081502
0.923879 0.000000 0.382683 0.924766 -0.000000 0.380537 0.560989 0.490881
0.382683 -0.000000 -0.923880 0.387887 -0.000000 -0.921707 0.833915 0.062714
0.980785 -0.000000 0.195090 0.981015 -0.000000 0.193930 0.567156 0.429587
0.195090 -0.000000 -0.980785 0.200969 -0.000000 -0.979598 0.948527 0.094534
0.693520 -0.137950 -0.707107 0.696496 -0.138542 -0.704059 0.580648 0.112472
0.544895 -0.108386 -0.831470 0.549019 -0.109207 -0.828645 0.638246 0.056841
0.815493 -0.162212 0.555570 0.817327 -0.162577 0.552761 0.528936 0.544142
0.906127 -0.180240 0.382683 0.906996 -0.180413 0.380537 0.532439 0.482034
0.375330 -0.074658 -0.923880 0.380434 -0.075673 -0.921707 0.856456 0.039893
0.961940 -0.191342 0.195090 0.962165 -0.191387 0.193929 0.536021 0.419934
0.191342 -0.038060 -0.980785 0.197107 -0.039207 -0.979598 0.966638 0.087931
0.980785 -0.195090 0.000000 0.980785 -0.195091 0.000000 0.539986 0.357878
0.191342 -0.038060 0.980785 0.197107 -0.039207 0.979598 0.508043 0.791799
0.961940 -0.191342 -0.195090 0.962165 -0.191387 -0.193929 0.544778 0.295915
0.375330 -0.074658 0.923880 0.380434 -0.075673 0.921707 0.515638 0.730152
0.906127 -0.180240 -0.382683 0.906996 -0.180413 -0.380537 0.551220 0.234138
0.544895 -0.108386 0.831470 0.549019 -0.109207 0.828645 0.520989 0.668252
0.815493 -0.162212 -0.555570 0.817327 -0.162577 -0.552761 0.561220 0.172764
0.693520 -0.137950 0.707107 0.696496 -0.138542 0.704059 0.525234 0.606227
0.180240 -0.074658 0.980785 0.185671 -0.076908 0.979598 0.498129 0.790429
0.353553 -0.146447 0.923880 0.358361 -0.148438 0.921707 0.499822 0.727971
0.906127 -0.375330 -0.195090 0.906340 -0.375419 -0.193929 0.506404 0.290637
0.853553 -0.353553 -0.382683 0.854372 -0.353893 -0.380537 0.507907 0.228175
0.513280 -0.212608 0.831470 0.517165 -0.214217 0.828645 0.501015 0.665501
0.768178 -0.318190 -0.555570 0.769905 -0.318905 -0.552761 0.510297 0.165735
0.653281 -0.270598 0.707107 0.656085 -0.271759 0.704059 0.501965 0.603025
0.653281 -0.270598 -0.707107 0.656085 -0.271759 -0.704059 0.515221 0.103359
0.768178 -0.318190 0.555570 0.769905 -0.318905 0.552761 0.502796 0.540546
0.513280 -0.212608 -0.831470 0.517165 -0.214217 -0.828645 0.534176 0.041338
0.853553 -0.353553 0.382683 0.854372 -0.353893 0.380537 0.503585 0.478066
0.353553 -0.146447 -0.923880 0.358361 -0.148438 -0.921707 0.947682 0.023355
0.906127 -0.375330 0.195090 0.906340 -0.375419 0.193929 0.504397 0.415586
0.180240 -0.074658 -0.980785 0.185671 -0.076908 -0.979598 0.988610 0.084811
0.923879 -0.382683 0.000000 0.923879 -0.382684 0.000000 0.505301 0.353109
0.691341 -0.461940 0.555570 0.692896 -0.462979 0.552761 0.476612 0.541519
0.768178 -0.513280 0.382683 0.768914 -0.513772 0.380537 0.474661 0.479141
0.461940 -0.308658 -0.831470 0.465436 -0.310994 -0.828645 1.404978 0.046051
0.318190 -0.212608 -0.923880 0.322516 -0.215499 -0.921707 1.095877 0.028785
0.815493 -0.544895 0.195090 0.815684 -0.545023 0.193929 0.472657 0.416766
0.162212 -0.108386 -0.980785 0.167099 -0.111652 -0.979598 1.011577 0.085667
0.831469 -0.555570 0.000000 0.831469 -0.555570 0.000000 0.470429 0.354404
0.162212 -0.108386 0.980785 0.167099 -0.111652 0.979598 0.488176 0.790799
0.815493 -0.544895 -0.195090 0.815684 -0.545023 -0.193929 0.467719 0.292073
0.318190 -0.212608 0.923880 0.322516 -0.215499 0.921707 0.483979 0.728561
0.768178 -0.513280 -0.382683 0.768914 -0.513772 -0.380537 0.464040 0.229802
0.461940 -0.308658 0.831470 0.465436 -0.310994 0.828645 0.481020 0.666245
0.691341 -0.461940 -0.555570 0.692896 -0.462979 -0.552761 0.458226 0.167665
0.587938 -0.392847 0.707107 0.590461 -0.394534 0.704059 0.478668 0.603891
0.587938 -0.392847 -0.707107 0.590461 -0.394534 -0.704059 0.446455 0.105901
0.461940 -0.308658 -0.831470 0.465436 -0.310994 -0.828645 0.404978 0.046051
0.693520 -0.693520 -0.195090 0.693683 -0.693683 -0.193929 0.429787 0.300102
0.653281 -0.653281 -0.382683 0.653908 -0.653908 -0.380537 0.421503 0.238833
0.270598 -0.270598 0.923880 0.274278 -0.274278 0.921707 0.468202 0.731911
0.392847 -0.392847 0.831470 0.395821 -0.395821 0.828645 0.461079 0.670468
0.587938 -0.587938 -0.555570 0.589260 -0.589260 -0.552761 0.408873 0.178220
0.500000 -0.500000 0.707107 0.502146 -0.502146 0.704059 0.455439 0.608804
0.500000 -0.500000 -0.707107 0.502146 -0.502146 -0.704059 0.385287 0.119299
0.587938 -0.587938 0.555570 0.589260 -0.589260 0.552761 0.450535 0.547029
0.392847 -0.392847 -0.831470 0.395821 -0.395821 -0.828645 0.323807 0.066742
0.653281 -0.653281 0.382683 0.653908 -0.653908 0.380537 0.445911 0.485214
0.318190 -0.212608 -0.923880 0.322516 -0.215499 -0.921707 0.095877 0.028785
0.270598 -0.270598 -0.923880 0.274278 -0.274278 -0.921707 0.147807 0.049313
0.693520 -0.693520 0.195090 0.693683 -0.693683 0.193929 0.441200 0.423411
0.162212 -0.108386 -0.980785 0.167099 -0.111652 -0.979598 0.011577 0.085667
0.137950 -0.137950 -0.980785 0.142106 -0.142107 -0.979598 0.032175 0.090357
0.707106 -0.707107 0.000000 0.707106 -0.707107 0.000000 0.436013 0.361679
0.137950 -0.137950 0.980785 0.142106 -0.142107 0.979598 0.478319 0.792904
0.137950 -0.137950 -0.980785 0.142106 -0.142107 -0.979598 1.032175 0.090357
0.308658 -0.461940 -0.831470 0.310994 -0.465436 -0.828645 0.277305 0.092963
0.212607 -0.318190 -0.923880 0.215498 -0.322516 -0.921707 0.159037 0.072825
0.513280 -0.768178 0.382683 0.513772 -0.768915 0.380537 0.417545 0.496040
0.544895 -0.815493 0.195090 0.545023 -0.815685 0.193929 0.410362 0.435188
0.108386 -0.162212 -0.980785 0.111652 -0.167100 -0.979598 0.048166 0.098187
0.555570 -0.831469 0.000000 0.555570 -0.831470 0.000000 0.402582 0.374476
0.108386 -0.162212 0.980785 0.111652 -0.167100 0.979598 0.468695 0.796706
0.108386 -0.162212 -0.980785 0.111652 -0.167100 -0.979598 1.048166 0.098187
0.544895 -0.815493 -0.195090 0.545023 -0.815685 -0.193929 0.393448 0.314080
0.212607 -0.318190 0.923880 0.215498 -0.322516 0.921707 0.452583 0.737970
0.513280 -0.768178 -0.382683 0.513772 -0.768915 -0.380537 0.381675 0.254305
0.308658 -0.461940 0.831470 0.310994 -0.465436 0.828645 0.441260 0.678090
0.461940 -0.691342 -0.555570 0.462979 -0.692897 -0.552761 0.364639 0.195793
0.392847 -0.587938 0.707107 0.394533 -0.590461 0.704059 0.432358 0.617639
0.392847 -0.587938 -0.707107 0.394533 -0.590461 -0.704059 0.335902 0.140195
0.461940 -0.691342 0.555570 0.462979 -0.692897 0.552761 0.424693 0.556900
0.353553 -0.853553 -0.382683 0.353892 -0.854372 -0.380537 0.345097 0.274835
0.318189 -0.768178 -0.555570 0.318905 -0.769906 -0.552761 0.325891 0.218332
0.212607 -0.513280 0.831470 0.214216 -0.517165 0.828645 0.421611 0.688967
0.270598 -0.653281 0.707107 0.271759 -0.656085 0.704059 0.409472 0.630184
0.270598 -0.653281 -0.707107 0.271759 -0.656085 -0.704059 0.296385 0.165337
0.318189 -0.768178 0.555570 0.318905 -0.769906 0.552761 0.399158 0.570827
0.212607 -0.513280 -0.831470 0.214216 -0.517165 -0.828645 0.245299 0.120662
0.353553 -0.853553 0.382683 0.353892 -0.854372 0.380537 0.389690 0.511206
0.146447 -0.353553 -0.923880 0.148438 -0.358361 -0.921707 0.157607 0.096698
0.375330 -0.906127 0.195090 0.375418 -0.906340 0.193929 0.380347 0.451545
0.074658 -0.180240 -0.980785 0.076907 -0.185671 -0.979598 0.058962 0.108237
0.382683 -0.923879 0.000000 0.382683 -0.923880 0.000000 0.370446 0.392059
0.074658 -0.180240 0.980785 0.076907 -0.185671 0.979598 0.459449 0.802140
0.074658 -0.180240 -0.980785 0.076907 -0.185671 -0.979598 1.058962 0.108237
0.375330 -0.906127 -0.195090 0.375418 -0.906340 -0.193929 0.359136 0.333015
0.146447 -0.353553 0.923880 0.148438 -0.358361 0.921707 0.437209 0.746646
0.074658 -0.375330 -0.923880 0.075673 -0.380434 -0.921707 0.150899 0.120164
0.038060 -0.191342 -0.980785 0.039207 -0.197107 -0.979598 0.065046 0.119643
0.191342 -0.961939 0.195090 0.191386 -0.962166 0.193929 0.351201 0.471783
0.195090 -0.980785 0.000000 0.195090 -0.980785 0.000000 0.339664 0.413539
0.038060 -0.191342 0.980785 0.039207 -0.197107 0.979598 0.450742 0.809109
0.038060 -0.191342 -0.980785 0.039207 -0.197107 -0.979598 1.065046 0.119643
0.191342 -0.961939 -0.195090 0.191386 -0.962166 -0.193929 0.326879 0.355773
0.074658 -0.375330 0.923880 0.075673 -0.380434 0.921707 0.422167 0.757809
0.180240 -0.906127 -0.382683 0.180413 -0.906997 -0.380537 0.311613 0.298972
0.108386 -0.544895 0.831470 0.109206 -0.549019 0.828645 0.402153 0.702905
0.162212 -0.815493 -0.555570 0.162576 -0.817327 -0.552761 0.291803 0.243985
0.137950 -0.693520 0.707107 0.138542 -0.696496 0.704059 0.386774 0.646148
0.137950 -0.693520 -0.707107 0.138542 -0.696496 -0.704059 0.263610 0.192518
0.162212 -0.815493 0.555570 0.162576 -0.817327 0.552761 0.373929 0.588406
0.108386 -0.544895 -0.831470 0.109207 -0.549019 -0.828645 0.219784 0.148411
0.180240 -0.906127 0.382683 0.180413 -0.906997 0.380537 0.362365 0.530171
-0.000000 -0.555570 0.831470 -0.000000 -0.559775 0.828645 0.382867 0.719668
-0.000000 -0.707107 0.707107 -0.000000 -0.710141 0.704059 0.364196 0.665186
-0.000000 -0.831469 -0.555570 -0.000000 -0.833340 -0.552761 0.261226 0.271289
-0.000000 -0.707107 -0.707107 -0.000000 -0.710141 -0.704059 0.235147 0.220347
-0.000000 -0.831469 0.555570 -0.000000 -0.833340 0.552761 0.348920 0.609159
-0.000000 -0.555570 -0.831470 -0.000000 -0.559775 -0.828645 0.197492 0.175520
0.000000 -0.923879 0.382683 -0.000000 -0.924766 0.380537 0.335478 0.552316
-0.000000 -0.382683 -0.923880 -0.000000 -0.387887 -0.921707 0.141452 0.142821
-0.000000 -0.980785 0.195090 -0.000000 -0.981016 0.193929 0.322818 0.495127
-0.000000 -0.195090 -0.980785 -0.000000 -0.200969 -0.979598 0.067268 0.131697
-0.000000 -0.999999 0.000000 -0.000000 -1.000000 0.000000 0.310089 0.437969
-0.000000 -0.195090 0.980785 -0.000000 -0.200969 0.979598 0.442759 0.817485
-0.000000 -0.195090 -0.980785 -0.000000 -0.200969 -0.979598 1.067268 0.131697
-0.000000 -0.980785 -0.195090 -0.000000 -0.981016 -0.193929 0.296418 0.381227
-0.000000 -0.382683 0.923880 -0.000000 -0.387887 0.921707 0.407539 0.771302
0.000000 -0.923879 -0.382683 -0.000000 -0.924766 -0.380537 0.280693 0.325402
-0.191342 -0.961939 0.195090 -0.191387 -0.962166 0.193929 0.294966 0.520772
-0.195091 -0.980785 0.000000 -0.195091 -0.980785 0.000000 0.281429 0.464420
-0.038060 -0.191342 0.980785 -0.039207 -0.197107 0.979598 0.435719 0.827110
-0.038060 -0.191342 -0.980785 -0.039207 -0.197107 -0.979598 1.066457 0.143852
-0.191342 -0.961939 -0.195090 -0.191387 -0.962166 -0.193929 0.267340 0.408332
-0.074658 -0.375330 0.923880 -0.075673 -0.380434 0.921707 0.393414 0.786940
-0.180240 -0.906127 -0.382683 -0.180413 -0.906996 -0.380537 0.251695 0.352999
-0.108386 -0.544895 0.831470 -0.109207 -0.549019 0.828645 0.363688 0.738990
-0.162212 -0.815493 -0.555570 -0.162577 -0.817327 -0.552761 0.233105 0.299125
-0.137950 -0.693520 0.707107 -0.138542 -0.696496 0.704059 0.341590 0.686906
-0.137950 -0.693520 -0.707107 -0.138542 -0.696496 -0.704059 0.209376 0.247895
-0.162212 -0.815493 0.555570 -0.162577 -0.817327 0.552761 0.323944 0.632559
-0.108386 -0.544895 -0.831470 -0.109207 -0.549019 -0.828645 0.176891 0.201534
-0.180240 -0.906127 0.382683 -0.180413 -0.906997 0.380537 0.308822 0.576971
-0.074658 -0.375330 -0.923880 -0.075673 -0.380434 -0.921707 0.130338 0.164376
-0.038060 -0.191342 -0.980785 -0.039207 -0.197107 -0.979598 0.066457 0.143852
-0.318190 -0.768177 -0.555570 -0.318906 -0.769906 -0.552761 0.206593 0.326609
-0.270598 -0.653281 -0.707107 -0.271759 -0.656085 -0.704059 0.185241 0.274482
-0.270598 -0.653281 0.707107 -0.271759 -0.656085 0.704059 0.318709 0.710884
-0.318190 -0.768177 0.555570 -0.318905 -0.769906 0.552761 0.298714 0.658036
-0.212608 -0.513280 -0.831470 -0.214217 -0.517165 -0.828645 0.157173 0.226088
-0.353553 -0.853553 0.382683 -0.353893 -0.854372 0.380537 0.282092 0.603438
-0.146447 -0.353553 -0.923880 -0.148438 -0.358361 -0.921707 0.118082 0.184573
-0.375330 -0.906127 0.195090 -0.375419 -0.906340 0.193929 0.267315 0.547906
-0.074658 -0.180240 -0.980785 -0.076907 -0.185671 -0.979598 0.063300 0.155686
-0.382683 -0.923879 0.000000 -0.382684 -0.923879 0.000000 0.253309 0.491989
-0.074658 -0.180240 0.980785 -0.076907 -0.185671 0.979598 0.429896 0.837788
-0.074658 -0.180240 -0.980785 -0.076907 -0.185671 -0.979598 1.063300 0.155686
-0.375330 -0.906127 -0.195090 -0.375419 -0.906340 -0.193929 0.239178 0.436135
-0.146447 -0.353553 0.923880 -0.148438 -0.358361 0.921707 0.379896 0.804521
-0.353553 -0.853553 -0.382683 -0.353893 -0.854372 -0.380537 0.223996 0.380807
-0.212608 -0.513280 0.831470 -0.214217 -0.517165 0.828645 0.344487 0.760584
-0.108386 -0.162212 0.980785 -0.111652 -0.167100 0.979598 0.425640 0.849281
-0.108386 -0.162212 -0.980785 -0.111652 -0.167100 -0.979598 1.058329 0.166864
-0.555570 -0.831469 0.000000 -0.555571 -0.831469 0.000000 0.225311 0.519808
-0.544895 -0.815493 -0.195090 -0.545023 -0.815684 -0.193929 0.211466 0.463755
-0.212608 -0.318190 0.923880 -0.215499 -0.322516 0.921707 0.367123 0.823829
-0.513280 -0.768178 -0.382683 -0.513772 -0.768914 -0.380537 0.197047 0.407985
-0.308658 -0.461939 0.831470 -0.310994 -0.465436 0.828645 0.325051 0.784147
-0.461940 -0.691341 -0.555570 -0.462979 -0.692897 -0.552761 0.181041 0.353007
-0.392847 -0.587938 0.707107 -0.394534 -0.590461 0.704059 0.295182 0.736662
-0.392847 -0.587938 -0.707107 -0.394534 -0.590461 -0.704059 0.162044 0.299554
-0.461940 -0.691341 0.555570 -0.462979 -0.692897 0.552761 0.272822 0.684979
-0.308658 -0.461939 -0.831470 -0.310994 -0.465436 -0.828645 0.137870 0.248852
-0.513280 -0.768178 0.382683 -0.513772 -0.768915 0.380537 0.254885 0.630980
-0.212608 -0.318190 -0.923880 -0.215499 -0.322516 -0.921707 0.104972 0.203174
-0.544895 -0.815493 0.195090 -0.545023 -0.815684 0.193929 0.239467 0.575708
-0.108386 -0.162212 -0.980785 -0.111652 -0.167100 -0.979598 0.058329 0.166864
-0.500000 -0.500000 0.707107 -0.502146 -0.502146 0.704059 0.270454 0.763731
-0.587938 -0.587937 0.555570 -0.589260 -0.589260 0.552761 0.245717 0.712709
-0.500000 -0.500000 -0.707107 -0.502146 -0.502146 -0.704059 0.139317 0.322626
-0.392847 -0.392847 -0.831470 -0.395821 -0.395820 -0.828645 0.118699 0.269516
-0.653281 -0.653281 0.382683 -0.653908 -0.653908 0.380537 0.226706 0.658807
-0.270598 -0.270598 -0.923880 -0.274278 -0.274278 -0.921707 0.091182 0.219956
-0.693520 -0.693520 0.195090 -0.693683 -0.693683 0.193929 0.210973 0.603325
-0.137950 -0.137950 -0.980785 -0.142106 -0.142106 -0.979598 0.051952 0.177121
-0.707106 -0.707106 0.000000 -0.707107 -0.707106 0.000000 0.197011 0.547009
-0.137950 -0.137950 0.980785 -0.142106 -0.142106 0.979598 0.423407 0.861297
-0.137950 -0.137950 -0.980785 -0.142106 -0.142106 -0.979598 1.051952 0.177121
-0.693520 -0.693520 -0.195090 -0.693683 -0.693683 -0.193929 0.183774 0.490356
-0.270598 -0.270598 0.923880 -0.274278 -0.274278 0.921707 0.355308 0.844632
-0.653281 -0.653281 -0.382683 -0.653908 -0.653908 -0.380537 0.170392 0.433769
-0.392847 -0.392847 0.831470 -0.395821 -0.395821 0.828645 0.305029 0.809363
-0.587938 -0.587937 -0.555570 -0.589260 -0.589260 -0.552761 0.155961 0.377673
-0.831469 -0.555569 0.000000 -0.831470 -0.555570 0.000000 0.168005 0.572713
-0.815493 -0.544895 -0.195090 -0.815685 -0.545023 -0.193929 0.155731 0.515122
-0.162212 -0.108386 0.980785 -0.167100 -0.111652 0.979598 0.423791 0.873467
-0.318190 -0.212607 0.923880 -0.322517 -0.215498 0.921707 0.344817 0.866689
-0.768177 -0.513280 -0.382683 -0.768915 -0.513772 -0.380537 0.143669 0.457442
-0.461940 -0.308658 0.831470 -0.465436 -0.310994 0.828645 0.283838 0.835890
-0.691341 -0.461939 -0.555570 -0.692897 -0.462979 -0.552761 0.131000 0.400016
-0.587938 -0.392847 0.707107 -0.590461 -0.394533 0.704059 0.243695 0.791492
-0.587938 -0.392847 -0.707107 -0.590461 -0.394533 -0.704059 0.116747 0.343256
-0.691341 -0.461939 0.555570 -0.692897 -0.462979 0.552761 0.216668 0.740438
-0.461940 -0.308658 -0.831470 -0.465436 -0.310994 -0.828645 0.099486 0.287785
-0.768177 -0.513280 0.382683 -0.768915 -0.513772 0.380537 0.196970 0.686034
-0.318190 -0.212607 -0.923880 -0.322517 -0.215498 -0.921707 0.076832 0.234706
-0.815493 -0.544895 0.195090 -0.815685 -0.545023 0.193929 0.181363 0.629851
-0.162212 -0.108386 -0.980785 -0.167100 -0.111652 -0.979598 0.044481 0.186237
-0.162212 -0.108386 -0.980785 -0.167100 -0.111652 -0.979598 1.044481 0.186237
-0.653281 -0.270598 -0.707107 -0.656085 -0.271759 -0.704059 0.094131 0.361033
-0.513280 -0.212607 -0.831470 -0.517165 -0.214216 -0.828645 0.080132 0.303378
-0.768177 -0.318189 0.555570 -0.769906 -0.318905 0.552761 0.184737 0.767195
-0.853553 -0.353553 0.382683 -0.854372 -0.353892 0.380537 0.165037 0.711638
-0.353553 -0.146447 -0.923880 -0.358361 -0.148438 -0.921707 0.062017 0.247229
-0.906127 -0.375330 0.195090 -0.906340 -0.375418 0.193929 0.150183 0.654293
-0.180240 -0.074658 -0.980785 -0.185671 -0.076907 -0.979598 0.036166 0.194033
-0.923879 -0.382683 0.000000 -0.923880 -0.382683 0.000000 0.137946 0.596005
-0.180240 -0.074658 0.980785 -0.185671 -0.076907 0.979598 0.427547 0.885321
-0.180240 -0.074658 -0.980785 -0.185671 -0.076907 -0.979598 1.036166 0.194033
-0.906127 -0.375330 -0.195090 -0.906340 -0.375418 -0.193929 0.127046 0.537243
-0.353553 -0.146447 0.923880 -0.358361 -0.148438 0.921707 0.336350 0.889729
-0.853553 -0.353553 -0.382683 -0.854372 -0.353892 -0.380537 0.116615 0.478315
-0.513280 -0.212607 0.831470 -0.517165 -0.214216 0.828645 0.260428 0.863335
-0.768177 -0.318189 -0.555570 -0.769906 -0.318905 -0.552761 0.105914 0.419482
-0.653281 -0.270598 0.707107 -0.656085 -0.271759 0.704059 0.213639 0.819179
-0.961939 -0.191341 -0.195090 -0.962166 -0.191386 -0.193929 0.097536 0.555923
-0.906127 -0.180240 -0.382683 -0.906996 -0.180413 -0.380537 0.089070 0.495737
-0.375330 -0.074658 0.923880 -0.380434 -0.075673 0.921707 0.331424 0.913428
-0.544895 -0.108386 0.831470 -0.549019 -0.109206 0.828645 0.232723 0.891172
-0.815493 -0.162211 -0.555570 -0.817327 -0.162576 -0.552761 0.080561 0.435564
-0.693520 -0.137950 0.707107 -0.696496 -0.138542 0.704059 0.178349 0.845702
-0.693520 -0.137950 -0.707107 -0.696496 -0.138542 -0.704059 0.071358 0.375584
-0.815493 -0.162211 0.555570 -0.817327 -0.162576 0.552761 0.148805 0.791726
-0.544895 -0.108386 -0.831470 -0.549019 -0.109206 -0.828645 0.060593 0.316042
-0.906127 -0.180240 0.382683 -0.906997 -0.180413 0.380537 0.130288 0.734413
-0.375330 -0.074658 -0.923880 -0.380434 -0.075673 -0.921707 0.046824 0.257353
-0.961939 -0.191341 0.195090 -0.962166 -0.191386 0.193929 0.117071 0.675566
-0.191342 -0.038060 -0.980785 -0.197107 -0.039207 -0.979598 0.027209 0.200363
-0.980784 -0.195090 0.000000 -0.980785 -0.195090 0.000000 0.106595 0.615943
-0.191342 -0.038060 0.980785 -0.197107 -0.039207 0.979598 0.435539 0.896247
-0.191342 -0.038060 -0.980785 -0.197107 -0.039207 -0.979598 1.027209 0.200363
-0.555570 0.000000 -0.831470 -0.559775 0.000000 -0.828645 0.040867 0.325557
-0.382683 0.000000 -0.923880 -0.387887 0.000000 -0.921707 0.031336 0.264931
-0.923879 0.000000 0.382683 -0.924766 0.000000 0.380537 0.092315 0.752973
-0.980785 0.000000 0.195090 -0.981016 0.000000 0.193929 0.081872 0.692529
-0.195090 0.000000 -0.980785 -0.200969 0.000000 -0.979598 0.017784 0.205113
-0.999999 0.000000 0.000000 -1.000000 0.000001 0.000000 0.073887 0.631595
-0.195090 0.000000 0.980785 -0.200969 0.000000 0.979598 0.448527 0.905466
-0.195090 0.000000 -0.980785 -0.200969 0.000000 -0.979598 1.017784 0.205113
-0.980785 0.000000 -0.195090 -0.981016 0.000000 -0.193929 0.067156 0.570413
-0.382683 0.000000 0.923880 -0.387887 0.000000 0.921707 0.333915 0.937286
-0.923879 0.000000 -0.382683 -0.924766 0.000000 -0.380537 0.060989 0.509119
-0.555570 0.000000 0.831470 -0.559775 0.000000 0.828645 0.196017 0.918498
-0.831469 0.000000 -0.555570 -0.833340 0.000000 -0.552761 0.054891 0.447811
-0.707107 0.000000 0.707107 -0.710141 0.000000 0.704059 0.135028 0.869370
-0.707107 0.000000 -0.707107 -0.710141 0.000000 -0.704059 0.048386 0.386583
-0.831469 0.000000 0.555570 -0.833340 0.000000 0.552761 0.107782 0.812401
-0.375330 0.074658 0.923880 -0.380434 0.075673 0.921707 0.356456 0.960107
-0.544895 0.108386 0.831470 -0.549019 0.109207 0.828645 0.138246 0.943159
-0.906127 0.180240 -0.382683 -0.906997 0.180413 -0.380537 0.032439 0.517967
-0.815493 0.162212 -0.555570 -0.817327 0.162577 -0.552761 0.028936 0.455858
-0.693520 0.137950 0.707107 -0.696496 0.138542 0.704059 0.080648 0.887528
-0.693520 0.137950 -0.707107 -0.696496 0.138542 -0.704059 0.025234 0.393773
-0.815493 0.162212 0.555570 -0.817327 0.162577 0.552761 0.061220 0.827236
-0.544895 0.108386 -0.831470 -0.549019 0.109207 -0.828645 0.020989 0.331748
-0.906127 0.180240 0.382683 -0.906996 0.180413 0.380537 0.051220 0.765862
-0.375330 0.074658 -0.923880 -0.380434 0.075673 -0.921707 0.015638 0.269848
-0.961939 0.191342 0.195090 -0.962166 0.191387 0.193929 0.044778 0.704085
-0.191342 0.038060 -0.980785 -0.197107 0.039207 -0.979598 0.008043 0.208201
-0.980784 0.195091 0.000000 -0.980785 0.195091 0.000000 0.039986 0.642122
-0.191342 0.038060 0.980785 -0.197107 0.039207 0.979598 0.466637 0.912069
-0.191342 0.038060 -0.980785 -0.197107 0.039207 -0.979598 1.008043 0.208201
-0.961939 0.191342 -0.195090 -0.962166 0.191387 -0.193929 0.036021 0.580066
-0.853553 0.353553 0.382683 -0.854372 0.353893 0.380537 0.007907 0.771825
-0.906127 0.375330 0.195090 -0.906340 0.375419 0.193929 0.006404 0.709363
-0.375330 0.074658 -0.923880 -0.380434 0.075673 -0.921707 1.015638 0.269848
-0.353553 0.146447 -0.923880 -0.358361 0.148438 -0.921707 0.999822 0.272029
-0.180240 0.074658 -0.980785 -0.185671 0.076908 -0.979598 0.998129 0.209571
-0.923878 0.382683 0.000000 -0.923879 0.382684 0.000000 0.005301 0.646891
-0.180240 0.074658 0.980785 -0.185671 0.076908 0.979598 0.488610 0.915189
-0.906127 0.375330 -0.195090 -0.906340 0.375419 -0.193929 0.004397 0.584414
-0.353553 0.146447 0.923880 -0.358361 0.148438 0.921707 0.447682 0.976645
-0.853553 0.353553 -0.382683 -0.854372 0.353893 -0.380537 0.003586 0.521934
-0.513279 0.212607 0.831470 -0.517164 0.214217 0.828645 0.034176 0.958662
-0.768177 0.318190 -0.555570 -0.769906 0.318906 -0.552761 0.002796 0.459454
-0.653281 0.270598 0.707107 -0.656085 0.271760 0.704059 0.015221 0.896641
-0.653281 0.270598 -0.707107 -0.656085 0.271760 -0.704059 0.001965 0.396975
-0.768177 0.318190 0.555570 -0.769906 0.318906 0.552761 0.010297 0.834265
-0.513279 0.212607 -0.831470 -0.517164 0.214217 -0.828645 0.001015 0.334499
-0.544895 0.108386 -0.831470 -0.549019 0.109207 -0.828645 1.020989 0.331748
-0.513279 0.212607 -0.831470 -0.517164 0.214217 -0.828645 1.001015 0.334499
-0.768177 0.318190 -0.555570 -0.769906 0.318906 -0.552761 1.002796 0.459454
-0.853553 0.353553 -0.382683 -0.854372 0.353893 -0.380537 1.003586 0.521934
-0.768177 0.513280 -0.382683 -0.768914 0.513772 -0.380537 0.974661 0.520859
-0.691341 0.461940 -0.555570 -0.692897 0.462979 -0.552761 0.976612 0.458481
-0.653281 0.270598 0.707107 -0.656085 0.271760 0.704059 1.015221 0.896641
-0.513279 0.212607 0.831470 -0.517164 0.214217 0.828645 1.034176 0.958662
-0.461939 0.308658 0.831470 -0.465436 0.310994 0.828645 0.904978 0.953949
-0.587938 0.392847 0.707107 -0.590461 0.394534 0.704059 0.946455 0.894099
-0.653281 0.270598 -0.707107 -0.656085 0.271760 -0.704059 1.001965 0.396975
-0.587938 0.392847 -0.707107 -0.590461 0.394534 -0.704059 0.978668 0.396109
-0.768177 0.318190 0.555570 -0.769906 0.318906 0.552761 1.010297 0.834265
-0.691341 0.461940 0.555570 -0.692897 0.462979 0.552761 0.958226 0.832335
-0.461939 0.308658 -0.831470 -0.465436 0.310994 -0.828645 0.981020 0.333755
-0.853553 0.353553 0.382683 -0.854372 0.353893 0.380537 1.007907 0.771825
-0.768177 0.513280 0.382683 -0.768914 0.513772 0.380537 0.964040 0.770198
-0.318189 0.212607 -0.923880 -0.322516 0.215499 -0.921707 0.983979 0.271439
-0.906127 0.375330 0.195090 -0.906340 0.375419 0.193929 1.006404 0.709363
-0.815493 0.544895 0.195090 -0.815685 0.545023 0.193929 0.967719 0.707927
-0.162212 0.108386 -0.980785 -0.167100 0.111652 -0.979598 0.988176 0.209201
-0.923878 0.382683 0.000000 -0.923879 0.382684 0.000000 1.005301 0.646891
-0.831468 0.555570 0.000000 -0.831469 0.555571 0.000000 0.970429 0.645596
-0.162212 0.108386 0.980785 -0.167100 0.111652 0.979598 0.511577 0.914333
-0.906127 0.375330 -0.195090 -0.906340 0.375419 -0.193929 1.004397 0.584414
-0.815493 0.544895 -0.195090 -0.815684 0.545023 -0.193929 0.972657 0.583235
-0.318189 0.212607 0.923880 -0.322516 0.215499 0.921707 0.595877 0.971215
-0.270598 0.270598 -0.923880 -0.274278 0.274278 -0.921707 0.968202 0.268089
-0.137950 0.137950 -0.980785 -0.142106 0.142107 -0.979598 0.978319 0.207096
-0.693519 0.693520 0.195090 -0.693683 0.693683 0.193929 0.929787 0.699898
-0.707106 0.707106 0.000000 -0.707106 0.707107 0.000000 0.936013 0.638321
-0.137950 0.137950 0.980785 -0.142106 0.142107 0.979598 0.532175 0.909643
-0.693519 0.693520 -0.195090 -0.693683 0.693683 -0.193929 0.941200 0.576589
-0.270598 0.270598 0.923880 -0.274278 0.274278 0.921707 0.647807 0.950687
-0.653281 0.653281 -0.382683 -0.653908 0.653908 -0.380537 0.945911 0.514786
-0.392847 0.392847 0.831470 -0.395820 0.395821 0.828645 0.823807 0.933258
-0.587937 0.587938 -0.555570 -0.589260 0.589260 -0.552761 0.950535 0.452971
-0.500000 0.500000 0.707107 -0.502146 0.502146 0.704059 0.885287 0.880701
-0.500000 0.500000 -0.707107 -0.502146 0.502146 -0.704059 0.955439 0.391196
-0.587937 0.587938 0.555570 -0.589260 0.589260 0.552761 0.908873 0.821780
-0.392847 0.392847 -0.831470 -0.395820 0.395821 -0.828645 0.961079 0.329532
-0.653281 0.653281 0.382683 -0.653908 0.653908 0.380537 0.921503 0.761167
-0.308658 0.461939 0.831470 -0.310994 0.465436 0.828645 0.777305 0.907037
-0.392847 0.587938 0.707107 -0.394533 0.590461 0.704059 0.835902 0.859805
-0.461939 0.691341 -0.555570 -0.462979 0.692897 -0.552761 0.924693 0.443100
-0.392847 0.587938 -0.707107 -0.394533 0.590461 -0.704059 0.932358 0.382361
-0.461939 0.691341 0.555570 -0.462979 0.692897 0.552761 0.864639 0.804207
-0.308658 0.461939 -0.831470 -0.310994 0.465436 -0.828645 0.941260 0.321910
-0.513280 0.768177 0.382683 -0.513772 0.768915 0.380537 0.881675 0.745695
-0.212607 0.318190 -0.923880 -0.215499 0.322517 -0.921707 0.952583 0.262030
-0.544895 0.815493 0.195090 -0.545023 0.815685 0.193928 0.893448 0.685920
-0.108386 0.162212 -0.980785 -0.111652 0.167100 -0.979598 0.968695 0.203294
-0.555569 0.831469 0.000000 -0.555570 0.831470 0.000000 0.902582 0.625524
-0.108386 0.162212 0.980785 -0.111652 0.167100 0.979598 0.548166 0.901813
-0.544895 0.815493 -0.195090 -0.545023 0.815685 -0.193928 0.910362 0.564812
-0.212607 0.318190 0.923880 -0.215499 0.322517 0.921707 0.659037 0.927175
-0.513280 0.768177 -0.382683 -0.513772 0.768915 -0.380537 0.917545 0.503960
-0.375330 0.906127 0.195090 -0.375418 0.906340 0.193928 0.859136 0.666985
-0.382683 0.923879 0.000000 -0.382683 0.923880 0.000000 0.870446 0.607941
-0.074658 0.180240 0.980785 -0.076907 0.185671 0.979598 0.558962 0.891763
-0.074658 0.180240 -0.980785 -0.076907 0.185671 -0.979598 0.959449 0.197860
-0.375330 0.906127 -0.195090 -0.375418 0.906340 -0.193928 0.880347 0.548455
-0.146446 0.353553 0.923880 -0.148438 0.358361 0.921707 0.657607 0.903302
-0.353553 0.853553 -0.382683 -0.353892 0.854372 -0.380537 0.889690 0.488794
-0.212607 0.513279 0.831470 -0.214216 0.517165 0.828645 0.745299 0.879339
-0.318189 0.768177 -0.555570 -0.318905 0.769906 -0.552761 0.899158 0.429173
-0.270598 0.653281 0.707107 -0.271759 0.656085 0.704059 0.796385 0.834663
-0.270598 0.653281 -0.707107 -0.271759 0.656085 -0.704059 0.909472 0.369816
-0.318189 0.768177 0.555570 -0.318905 0.769906 0.552761 0.825891 0.781668
-0.212607 0.513279 -0.831470 -0.214216 0.517165 -0.828645 0.921611 0.311033
-0.353553 0.853553 0.382683 -0.353892 0.854372 0.380537 0.845097 0.725165
-0.146446 0.353553 -0.923880 -0.148438 0.358361 -0.921707 0.937209 0.253354
-0.162211 0.815493 -0.555570 -0.162577 0.817327 -0.552761 0.873929 0.411594
-0.137950 0.693520 -0.707107 -0.138542 0.696496 -0.704059 0.886774 0.353852
-0.137950 0.693520 0.707107 -0.138542 0.696496 0.704059 0.763610 0.807482
-0.162211 0.815493 0.555570 -0.162577 0.817327 0.552761 0.791803 0.756016
-0.108386 0.544895 -0.831470 -0.109206 0.549019 -0.828645 0.902153 0.297095
-0.180240 0.906127 0.382683 -0.180413 0.906996 0.380537 0.811613 0.701028
-0.074658 0.375330 -0.923880 -0.075673 0.380434 -0.921707 0.922167 0.242191
-0.191341 0.961939 0.195090 -0.191388 0.962165 0.193929 0.826879 0.644227
-0.038060 0.191342 -0.980785 -0.039207 0.197107 -0.979598 0.950742 0.190891
-0.195090 0.980784 0.000000 -0.195092 0.980785 0.000000 0.839664 0.586462
-0.038060 0.191342 0.980785 -0.039207 0.197107 0.979598 0.565046 0.880357
-0.191341 0.961939 -0.195090 -0.191388 0.962165 -0.193929 0.851201 0.528217
-0.074658 0.375330 0.923880 -0.075673 0.380434 0.921707 0.650899 0.879836
-0.180240 0.906127 -0.382683 -0.180413 0.906996 -0.380537 0.862365 0.469829
-0.108386 0.544895 0.831470 -0.109207 0.549019 0.828645 0.719784 0.851589
3 0 1 2
3 3 4 5
4 6 7 8 9
4 10 0 2 11
4 12 6 9 13
4 14 10 11 15
4 16 12 13 17
4 18 14 15 19
4 20 16 17 21
4 22 18 19 23
4 24 20 21 25
4 26 22 23 27
4 28 24 25 29
4 30 26 27 31
4 4 28 29 5
4 7 30 31 8
4 31 27 32 33
4 5 29 34 35
4 8 31 33 36
3 2 1 37
3 3 5 35
4 9 8 36 38
4 11 2 37 39
4 13 9 38 40
4 15 11 39 41
4 17 13 40 42
4 19 15 41 43
4 21 17 42 44
4 23 19 43 45
4 25 21 44 46
4 27 23 45 32
4 29 25 46 34
4 42 40 47 48
4 43 41 49 50
4 44 42 48 51
4 45 43 50 52
4 46 44 51 53
4 32 45 52 54
4 34 46 53 55
4 33 32 54 56
4 35 34 55 57
4 36 33 56 58
3 37 1 59
3 3 35 57
4 38 36 58 60
4 39 37 59 61
4 40 38 60 47
4 41 39 61 49
4 57 55 62 63
4 58 56 64 65
3 59 1 66
3 3 57 63
4 60 58 65 67
4 61 59 66 68
4 47 60 67 69
4 49 61 68 70
4 48 47 69 71
4 50 49 70 72
4 51 48 71 73
4 52 50 72 74
4 53 51 73 75
4 54 52 74 76
4 55 53 75 62
4 56 54 76 64
4 73 71 77 78
4 74 72 79 80
4 75 73 78 81
4 76 74 80 82
4 62 75 81 83
4 64 76 82 84
4 63 62 83 85
4 65 64 84 86
3 66 1 87
3 3 63 85
4 67 65 86 88
4 68 66 87 89
4 69 67 88 90
4 70 68 89 91
4 71 69 90 77
4 72 70 91 79
3 87 1 92
3 3 85 93
4 88 86 94 95
4 89 87 92 96
4 90 88 95 97
4 91 89 96 98
4 77 90 97 99
4 79 91 98 100
4 78 77 99 101
4 80 79 100 102
4 81 78 101 103
4 82 80 102 104
4 83 81 103 105
4 84 82 104 106
4 85 83 105 93
4 86 84 106 94
4 102 100 107 108
4 103 101 109 110
4 104 102 108 111
4 105 103 110 112
4 106 104 111 113
4 93 105 112 114
4 94 106 113 115
3 92 1 116
3 3 93 114
4 95 94 115 117
4 96 92 116 118
4 97 95 117 119
4 98 96 118 120
4 99 97 119 121
4 100 98 120 107
4 101 99 121 109
4 117 115 122 123
4 118 116 124 125
4 119 117 123 126
4 120 118 125 127
4 121 119 126 128
4 107 120 127 129
4 109 121 128 130
4 108 107 129 131
4 110 109 130 132
4 111 108 131 133
4 112 110 132 134
4 113 111 133 135
4 114 112 134 136
4 115 113 135 122
3 116 1 124
3 3 114 136
4 132 130 137 138
4 133 131 139 140
4 134 132 138 141
4 135 133 140 142
4 136 134 141 143
4 122 135 142 144
3 124 1 145
3 3 136 143
4 123 122 144 146
4 125 124 145 147
4 126 123 146 148
4 127 125 147 149
4 128 126 148 150
4 129 127 149 151
4 130 128 150 137
4 131 129 151 139
4 147 145 152 153
4 148 146 154 155
4 149 147 153 156
4 150 148 155 157
4 151 149 156 158
4 137 150 157 159
4 139 151 158 160
4 138 137 159 161
4 140 139 160 162
4 141 138 161 163
4 142 140 162 164
4 143 141 163 165
4 144 142 164 166
3 145 1 152
3 3 143 165
4 146 144 166 154
4 162 160 167 168
4 163 161 169 170
4 164 162 168 171
4 165 163 170 172
4 166 164 171 173
3 152 1 174
3 3 165 172
4 154 166 173 175
4 153 152 174 176
4 155 154 175 177
4 156 153 176 178
4 157 155 177 179
4 158 156 178 180
4 159 157 179 181
4 160 158 180 167
4 161 159 181 182
4 177 175 183 184
4 178 176 185 186
4 179 177 184 187
4 180 178 186 188
4 181 179 187 189
4 167 180 188 190
4 182 181 189 191
4 168 167 190 192
4 193 182 191 194
4 171 168 192 195
4 196 193 194 197
4 173 171 195 198
3 174 1 199
3 3 172 200
4 175 173 198 183
4 176 174 199 185
4 194 191 201 202
4 195 192 203 204
4 197 194 202 205
4 198 195 204 206
3 199 1 207
3 3 200 208
4 183 198 206 209
4 185 199 207 210
4 184 183 209 211
4 186 185 210 212
4 187 184 211 213
4 188 186 212 214
4 189 187 213 215
4 190 188 214 216
4 191 189 215 201
4 192 190 216 203
4 213 211 217 218
4 214 212 219 220
4 215 213 218 221
4 216 214 220 222
4 201 215 221 223
4 203 216 222 224
4 202 201 223 225
4 204 203 224 226
4 205 202 225 227
4 206 204 226 228
3 207 1 229
3 3 208 230
4 209 206 228 231
4 210 207 229 232
4 211 209 231 217
4 212 210 232 219
4 227 225 233 234
4 228 226 235 236
3 229 1 237
3 3 230 238
4 231 228 236 239
4 232 229 237 240
4 217 231 239 241
4 219 232 240 242
4 218 217 241 243
4 220 219 242 244
4 221 218 243 245
4 222 220 244 246
4 223 221 245 247
4 224 222 246 248
4 225 223 247 233
4 226 224 248 235
4 244 242 249 250
4 245 243 251 252
4 246 244 250 253
4 247 245 252 254
4 248 246 253 255
4 233 247 254 256
4 235 248 255 257
4 234 233 256 258
4 236 235 257 259
3 237 1 260
3 3 238 261
4 239 236 259 262
4 240 237 260 263
4 241 239 262 264
4 242 240 263 249
4 243 241 264 251
4 259 257 265 266
3 260 1 267
3 3 261 268
4 262 259 266 269
4 263 260 267 270
4 264 262 269 271
4 249 263 270 272
4 251 264 271 273
4 250 249 272 274
4 252 251 273 275
4 253 250 274 276
4 254 252 275 277
4 255 253 276 278
4 256 254 277 279
4 257 255 278 265
4 258 256 279 280
4 275 273 281 282
4 276 274 283 284
4 277 275 282 285
4 278 276 284 286
4 279 277 285 287
4 265 278 286 288
4 280 279 287 289
4 266 265 288 290
3 267 1 291
3 3 268 292
4 269 266 290 293
4 270 267 291 294
4 271 269 293 295
4 272 270 294 296
4 273 271 295 281
4 274 272 296 283
3 291 1 297
3 3 292 298
4 293 290 299 300
4 294 291 297 301
4 295 293 300 302
4 296 294 301 303
4 281 295 302 304
4 283 296 303 305
4 282 281 304 306
4 284 283 305 307
4 285 282 306 308
4 286 284 307 309
4 287 285 308 310
4 288 286 309 311
4 289 287 310 312
4 290 288 311 299
4 307 305 313 314
4 308 306 315 316
4 309 307 314 317
4 310 308 316 318
4 311 309 317 319
4 312 310 318 320
4 299 311 319 321
3 297 1 322
3 3 298 323
4 300 299 321 324
4 301 297 322 325
4 302 300 324 326
4 303 301 325 327
4 304 302 326 328
4 305 303 327 313
4 306 304 328 315
4 324 321 329 330
4 325 322 331 332
4 326 324 330 333
4 327 325 332 334
4 328 326 333 335
4 313 327 334 336
4 315 328 335 337
4 314 313 336 338
4 316 315 337 339
4 317 314 338 340
4 318 316 339 341
4 319 317 340 342
4 320 318 341 343
4 321 319 342 329
3 322 1 331
3 3 323 344
4 339 337 345 346
4 340 338 347 348
4 341 339 346 349
4 342 340 348 350
4 343 341 349 351
4 329 342 350 352
3 331 1 353
3 3 344 354
4 330 329 352 355
4 332 331 353 356
4 333 330 355 357
4 334 332 356 358
4 335 333 357 359
4 336 334 358 360
4 337 335 359 345
4 338 336 360 347
4 357 355 361 362
4 358 356 363 364
4 359 357 362 365
4 360 358 364 366
4 345 359 365 367
4 347 360 366 368
4 346 345 367 369
4 348 347 368 370
4 349 346 369 371
4 350 348 370 372
4 351 349 371 373
4 352 350 372 374
3 353 1 375
3 3 354 376
4 355 352 374 361
4 356 353 375 363
4 371 369 377 378
4 372 370 379 380
4 373 371 378 381
4 374 372 380 382
3 375 1 383
3 3 376 384
4 361 374 382 385
4 363 375 383 386
4 362 361 385 387
4 364 363 386 388
4 365 362 387 389
4 366 364 388 390
4 367 365 389 391
4 368 366 390 392
4 369 367 391 377
4 370 368 392 379
4 388 386 393 394
4 389 387 395 396
4 390 388 394 397
4 391 389 396 398
4 392 390 397 399
4 377 391 398 400
4 379 392 399 401
4 378 377 400 402
4 380 379 401 403
4 381 378 402 404
4 382 380 403 405
3 383 1 406
3 3 384 407
4 385 382 405 408
4 386 383 406 393
4 387 385 408 395
4 403 401 409 410
4 407 411 412 413
4 405 403 410 414
3 406 1 415
3 3 407 413
4 408 405 414 416
4 393 406 415 417
4 395 408 416 418
4 394 393 417 419
4 396 395 418 420
4 397 394 419 421
4 398 396 420 422
4 399 397 421 423
4 400 398 422 424
4 401 399 423 409
4 411 425 426 412
4 427 428 429 430
4 431 432 433 434
4 435 427 430 436
4 437 431 434 438
4 426 435 436 439
4 440 437 438 441
4 412 426 439 442
4 443 440 441 444
4 413 412 442 445
4 446 443 444 447
3 415 1 448
3 3 413 445
4 449 446 447 450
4 417 415 448 451
4 428 449 450 429
4 432 417 451 433
4 445 442 452 453
4 447 444 454 455
3 448 1 456
3 3 445 453
4 450 447 455 457
4 451 448 456 458
4 429 450 457 459
4 433 451 458 460
4 430 429 459 461
4 434 433 460 462
4 436 430 461 463
4 438 434 462 464
4 439 436 463 465
4 441 438 464 466
4 442 439 465 452
4 444 441 466 454
4 462 460 467 468
4 463 461 469 470
4 464 462 468 471
4 465 463 470 472
4 466 464 471 473
4 452 465 472 474
4 454 466 473 475
4 453 452 474 476
4 455 454 475 477
3 456 1 478
3 3 453 476
4 457 455 477 479
4 458 456 478 480
4 459 457 479 481
4 460 458 480 467
4 461 459 481 469
4 477 475 482 483
3 478 1 484
3 3 476 485
4 479 477 483 486
4 480 478 484 487
4 481 479 486 488
4 467 480 487 489
4 469 481 488 490
4 468 467 489 491
4 470 469 490 492
4 471 468 491 493
4 472 470 492 494
4 473 471 493 495
4 474 472 494 496
4 475 473 495 482
4 476 474 496 485
4 492 490 497 498
4 493 491 499 500
4 494 492 498 501
4 495 493 500 502
4 496 494 501 503
4 482 495 502 504
4 485 496 503 505
4 483 482 504 506
3 484 1 507
3 3 485 505
4 486 483 506 508
4 487 484 507 509
4 488 486 508 510
4 489 487 509 511
4 490 488 510 497
4 491 489 511 499
3 3 505 4
4 508 506 7 6
4 509 507 0 10
4 510 508 6 12
4 511 509 10 14
4 497 510 12 16
4 499 511 14 18
4 498 497 16 20
4 500 499 18 22
4 501 498 20 24
4 502 500 22 26
4 503 501 24 28
4 504 502 26 30
4 505 503 28 4
4 506 504 30 7
3 507 1 0
